<svg width="960" height="1120" viewBox="0 0 960 1120" fill="none" xmlns="http://www.w3.org/2000/svg">
  <defs>
    <linearGradient id="bag-wash" x1="156" y1="94" x2="812" y2="1008" gradientUnits="userSpaceOnUse">
      <stop stop-color="#FFF9F2"/>
      <stop offset="1" stop-color="#D4B191"/>
    </linearGradient>
    <radialGradient id="bag-glow" cx="0" cy="0" r="1" gradientUnits="userSpaceOnUse" gradientTransform="translate(728 196) rotate(118) scale(540 680)">
      <stop stop-color="#E7C7A6"/>
      <stop offset="1" stop-color="#E7C7A6" stop-opacity="0"/>
    </radialGradient>
  </defs>
  <rect width="960" height="1120" rx="72" fill="url(#bag-wash)"/>
  <circle cx="730" cy="210" r="198" fill="url(#bag-glow)"/>
  <ellipse cx="480" cy="918" rx="212" ry="48" fill="#000" fill-opacity="0.1"/>
  <path d="M284 432C284 378 326 334 380 334H580C634 334 676 378 676 432V806C676 866 628 914 568 914H392C332 914 284 866 284 806V432Z" fill="#312925"/>
  <path d="M382 370C382 308 426 266 480 266C534 266 578 308 578 370V416H540V372C540 332 514 304 480 304C446 304 420 332 420 372V416H382V370Z" fill="#312925"/>
  <rect x="322" y="418" width="318" height="440" rx="34" fill="#F3E8DB"/>
  <rect x="354" y="456" width="254" height="350" rx="24" fill="#BD8F67" fill-opacity="0.22"/>
  <rect x="421" y="606" width="118" height="50" rx="16" fill="#231F1B" fill-opacity="0.08"/>
  <rect x="445" y="588" width="70" height="24" rx="12" fill="#B78758"/>
  <path d="M344 454C392 432 438 422 480 422C522 422 572 432 616 454" stroke="white" stroke-opacity="0.3" stroke-width="16" stroke-linecap="round"/>
</svg>

