<svg width="960" height="1120" viewBox="0 0 960 1120" fill="none" xmlns="http://www.w3.org/2000/svg">
  <defs>
    <linearGradient id="bundle-wash" x1="160" y1="88" x2="808" y2="1006" gradientUnits="userSpaceOnUse">
      <stop stop-color="#FFFBF5"/>
      <stop offset="1" stop-color="#D8BC96"/>
    </linearGradient>
    <radialGradient id="bundle-glow" cx="0" cy="0" r="1" gradientUnits="userSpaceOnUse" gradientTransform="translate(728 188) rotate(120) scale(540 700)">
      <stop stop-color="#E8D2B2"/>
      <stop offset="1" stop-color="#E8D2B2" stop-opacity="0"/>
    </radialGradient>
  </defs>
  <rect width="960" height="1120" rx="72" fill="url(#bundle-wash)"/>
  <circle cx="730" cy="194" r="204" fill="url(#bundle-glow)"/>
  <ellipse cx="486" cy="920" rx="228" ry="48" fill="#000" fill-opacity="0.1"/>
  <rect x="492" y="386" width="250" height="450" rx="42" fill="#F5EBDF"/>
  <rect x="554" y="316" width="126" height="84" rx="18" fill="#302924"/>
  <rect x="530" y="468" width="176" height="308" rx="24" fill="#D1B18B" fill-opacity="0.22"/>
  <ellipse cx="424" cy="856" rx="150" ry="36" fill="#000" fill-opacity="0.08"/>
  <rect x="382" y="352" width="84" height="212" rx="34" fill="#403730"/>
  <rect x="382" y="802" width="84" height="212" rx="34" fill="#403730"/>
  <circle cx="424" cy="704" r="152" fill="#403730" stroke="#D4B895" stroke-opacity="0.34" stroke-width="16"/>
  <circle cx="424" cy="704" r="112" fill="white" fill-opacity="0.68"/>
  <line x1="424" y1="614" x2="424" y2="704" stroke="#2E2722" stroke-width="6" stroke-linecap="round"/>
  <line x1="482" y1="668" x2="424" y2="704" stroke="#D8C3A4" stroke-width="8" stroke-linecap="round"/>
  <circle cx="424" cy="704" r="12" fill="#2E2722"/>
  <path d="M132 786C196 728 270 690 356 698C430 704 490 742 538 810C560 840 584 864 598 874C614 888 618 916 604 932C592 946 570 952 546 952H196C142 952 110 916 110 884C110 856 124 834 132 786Z" fill="#352D27"/>
  <path d="M144 886H576C588 886 598 896 598 908V916C598 936 580 952 560 952H200C154 952 126 930 120 900C118 892 124 886 144 886Z" fill="#F2E8DB"/>
  <path d="M170 820C232 774 286 756 354 760C420 762 480 792 522 842" stroke="#C59C71" stroke-width="12" stroke-linecap="round"/>
</svg>
