<svg width="960" height="1120" viewBox="0 0 960 1120" fill="none" xmlns="http://www.w3.org/2000/svg">
  <defs>
    <linearGradient id="coat-wash" x1="152" y1="94" x2="794" y2="998" gradientUnits="userSpaceOnUse">
      <stop stop-color="#FFF9F2"/>
      <stop offset="1" stop-color="#D8C1A0"/>
    </linearGradient>
    <radialGradient id="coat-glow" cx="0" cy="0" r="1" gradientUnits="userSpaceOnUse" gradientTransform="translate(748 188) rotate(120) scale(540 680)">
      <stop stop-color="#E3D0B3"/>
      <stop offset="1" stop-color="#E3D0B3" stop-opacity="0"/>
    </radialGradient>
  </defs>
  <rect width="960" height="1120" rx="72" fill="url(#coat-wash)"/>
  <circle cx="736" cy="210" r="188" fill="url(#coat-glow)"/>
  <circle cx="204" cy="860" r="148" fill="white" fill-opacity="0.34"/>
  <ellipse cx="484" cy="944" rx="196" ry="46" fill="#000" fill-opacity="0.1"/>
  <path d="M481 176C542 176 576 212 602 248L654 402L633 420L606 356L592 382L592 884C592 914 569 938 540 938H422C392 938 368 914 368 884V382L354 356L327 420L306 402L358 248C384 212 418 176 481 176Z" fill="#403630"/>
  <path d="M420 246L482 334L542 246L500 480H464L420 246Z" fill="#F0E4D5"/>
  <path d="M418 246L482 336L546 246L576 256L520 398H444L388 256L418 246Z" fill="#C6A57E" fill-opacity="0.28"/>
  <path d="M420 246L388 256L460 540L482 520L420 246Z" fill="white" fill-opacity="0.22"/>
  <path d="M542 246L576 256L504 540L482 520L542 246Z" fill="white" fill-opacity="0.12"/>
  <rect x="454" y="472" width="54" height="122" rx="24" fill="#C6A57E" fill-opacity="0.16"/>
  <path d="M448 178C448 156 464 142 482 142C500 142 516 156 516 178V190H448V178Z" fill="#302924" fill-opacity="0.72"/>
  <path d="M370 406L370 872" stroke="white" stroke-opacity="0.06" stroke-width="6" stroke-linecap="round"/>
  <path d="M592 406L592 872" stroke="white" stroke-opacity="0.06" stroke-width="6" stroke-linecap="round"/>
  <circle cx="480" cy="556" r="10" fill="#E6D4BB"/>
  <circle cx="480" cy="616" r="10" fill="#E6D4BB"/>
  <circle cx="480" cy="676" r="10" fill="#E6D4BB"/>
</svg>

