<svg width="960" height="1120" viewBox="0 0 960 1120" fill="none" xmlns="http://www.w3.org/2000/svg">
  <defs>
    <linearGradient id="shoe-wash" x1="126" y1="92" x2="810" y2="1012" gradientUnits="userSpaceOnUse">
      <stop stop-color="#FFF9F2"/>
      <stop offset="1" stop-color="#D2B28C"/>
    </linearGradient>
    <radialGradient id="shoe-glow" cx="0" cy="0" r="1" gradientUnits="userSpaceOnUse" gradientTransform="translate(748 188) rotate(120) scale(540 660)">
      <stop stop-color="#E2C8A2"/>
      <stop offset="1" stop-color="#E2C8A2" stop-opacity="0"/>
    </radialGradient>
  </defs>
  <rect width="960" height="1120" rx="72" fill="url(#shoe-wash)"/>
  <circle cx="722" cy="188" r="194" fill="url(#shoe-glow)"/>
  <ellipse cx="480" cy="888" rx="246" ry="54" fill="#000" fill-opacity="0.1"/>
  <path d="M248 652C312 596 404 524 526 530C616 534 698 590 748 670C774 712 804 742 824 756C844 770 850 800 832 822C818 840 790 848 758 848H294C226 848 184 802 182 760C180 724 198 698 248 652Z" fill="#3A3028"/>
  <path d="M274 706C332 648 410 596 516 598C600 600 676 646 730 718" stroke="white" stroke-opacity="0.22" stroke-width="18" stroke-linecap="round"/>
  <path d="M246 764H802C816 764 828 776 828 790V800C828 826 806 848 780 848H300C238 848 200 818 194 780C192 770 200 764 246 764Z" fill="#F3E8DB"/>
  <path d="M280 654C358 610 450 590 534 600C606 608 674 648 718 706" stroke="#BE9366" stroke-width="14" stroke-linecap="round"/>
  <path d="M392 628L440 706" stroke="#BE9366" stroke-width="12" stroke-linecap="round"/>
  <path d="M464 614L508 702" stroke="#BE9366" stroke-width="12" stroke-linecap="round"/>
  <path d="M530 616L568 704" stroke="#BE9366" stroke-width="12" stroke-linecap="round"/>
  <path d="M606 632L634 710" stroke="#BE9366" stroke-width="12" stroke-linecap="round"/>
  <path d="M282 752L744 752" stroke="#14110F" stroke-opacity="0.12" stroke-width="8" stroke-linecap="round"/>
</svg>

