<svg width="960" height="1120" viewBox="0 0 960 1120" fill="none" xmlns="http://www.w3.org/2000/svg">
  <defs>
    <linearGradient id="watch-wash" x1="180" y1="90" x2="790" y2="980" gradientUnits="userSpaceOnUse">
      <stop stop-color="#FFFCF7"/>
      <stop offset="1" stop-color="#E0D0B7"/>
    </linearGradient>
    <radialGradient id="watch-glow" cx="0" cy="0" r="1" gradientUnits="userSpaceOnUse" gradientTransform="translate(690 180) rotate(119) scale(540 700)">
      <stop stop-color="#E9D8BC"/>
      <stop offset="1" stop-color="#E9D8BC" stop-opacity="0"/>
    </radialGradient>
  </defs>
  <rect width="960" height="1120" rx="72" fill="url(#watch-wash)"/>
  <circle cx="720" cy="184" r="192" fill="url(#watch-glow)"/>
  <circle cx="244" cy="864" r="164" fill="white" fill-opacity="0.35"/>
  <ellipse cx="480" cy="926" rx="182" ry="44" fill="#000" fill-opacity="0.1"/>
  <rect x="425" y="134" width="110" height="304" rx="42" fill="#4A433D"/>
  <rect x="425" y="676" width="110" height="300" rx="42" fill="#4A433D"/>
  <rect x="454" y="198" width="52" height="212" rx="26" fill="#D7C1A0" fill-opacity="0.32"/>
  <rect x="454" y="728" width="52" height="212" rx="26" fill="#D7C1A0" fill-opacity="0.24"/>
  <circle cx="480" cy="560" r="198" fill="#D8C3A1" fill-opacity="0.26"/>
  <circle cx="480" cy="560" r="182" fill="#3D362F" stroke="#CDB28B" stroke-opacity="0.42" stroke-width="22"/>
  <circle cx="480" cy="560" r="136" fill="#F8F2EA"/>
  <circle cx="480" cy="560" r="112" fill="white" fill-opacity="0.52"/>
  <circle cx="480" cy="560" r="104" stroke="#14110F" stroke-opacity="0.09" stroke-width="2"/>
  <path d="M346 428C382 372 438 344 480 344C522 344 577 372 614 428" stroke="white" stroke-opacity="0.32" stroke-width="18" stroke-linecap="round"/>
  <line x1="480" y1="468" x2="480" y2="560" stroke="#312A24" stroke-width="7" stroke-linecap="round"/>
  <line x1="546" y1="528" x2="480" y2="560" stroke="#E1CCAA" stroke-width="10" stroke-linecap="round"/>
  <circle cx="480" cy="560" r="14" fill="#312A24"/>
  <rect x="652" y="534" width="22" height="52" rx="10" fill="#413932"/>
  <g stroke="#312A24" stroke-opacity="0.78" stroke-linecap="round">
    <line x1="480" y1="464" x2="480" y2="452" stroke-width="6"/>
    <line x1="532" y1="478" x2="538" y2="468" stroke-width="4"/>
    <line x1="566" y1="514" x2="576" y2="508" stroke-width="4"/>
    <line x1="578" y1="560" x2="590" y2="560" stroke-width="6"/>
    <line x1="566" y1="606" x2="576" y2="612" stroke-width="4"/>
    <line x1="532" y1="642" x2="538" y2="652" stroke-width="4"/>
    <line x1="480" y1="656" x2="480" y2="668" stroke-width="6"/>
    <line x1="428" y1="642" x2="422" y2="652" stroke-width="4"/>
    <line x1="394" y1="606" x2="384" y2="612" stroke-width="4"/>
    <line x1="382" y1="560" x2="370" y2="560" stroke-width="6"/>
    <line x1="394" y1="514" x2="384" y2="508" stroke-width="4"/>
    <line x1="428" y1="478" x2="422" y2="468" stroke-width="4"/>
  </g>
</svg>

